<svg xmlns="http://www.w3.org/2000/svg" width="200" height="50" viewBox="0 0 200 50" fill="none"><path fill-rule="evenodd" clip-rule="evenodd" d="M48.8788 28.9614C48.737 28.9741 48.5736 29.034 48.0226 29.0368C46.4832 29.0417 43.5333 28.4296 39.7436 25.4786C36.6506 23.0698 33.6325 21.9616 31.0912 21.9616C30.088 21.9616 29.2021 22.0892 28.3331 22.4753C28.2215 24.1339 27.8316 25.8481 26.6871 27.3962C26.0294 28.2855 25.4453 28.9097 24.6842 29.4465C27.4312 29.6164 30.5528 31.4318 32.0288 32.2518C36.2866 34.6171 39.0902 35.1715 41.0316 35.1616C45.9905 35.1341 48.6583 31.5313 49.0686 29.5389C49.1566 29.1115 49.0955 28.9438 48.8788 28.9614Z" fill="#F03742"/><path fill-rule="evenodd" clip-rule="evenodd" d="M40.0963 37.1759C38.4421 36.9494 35.8804 36.3301 31.3537 33.637C30.1785 32.9369 29.1688 32.4128 28.1898 31.9756C26.5405 31.2392 25.1167 30.8647 23.7237 30.8647C22.1591 30.8801 20.8408 31.2881 19.324 32.0586C16.775 33.3527 15.3226 36.0595 14.9508 36.8339C14.81 37.1254 14.9899 37.232 15.1581 37.2425C16.3224 37.3244 18.2219 37.661 20.6412 38.6102C24.1565 39.9901 27.2071 41.4518 31.0105 41.5728C35.678 41.7202 39.2488 39.0722 40.1772 37.8172C40.4296 37.4751 40.4521 37.2243 40.0963 37.1759Z" fill="#F03742"/><path fill-rule="evenodd" clip-rule="evenodd" d="M35.8417 11.2743C34.4729 10.3019 32.118 9.45557 29.3561 9.45557C28.2557 9.45557 27.0964 9.60625 25.9162 9.97307C21.5798 11.3188 19.7452 14.2127 19.1831 15.6909C20.6196 15.5089 24.1107 15.0706 25.9459 15.0447C26.1516 14.6521 27.1794 12.6508 30.4703 11.8044C31.3662 11.574 32.1818 11.4535 33.1112 11.4535C33.9054 11.4535 34.9635 11.5789 35.6713 11.7335C35.9578 11.7852 36.0771 11.4403 35.8417 11.2743Z" fill="#F03742"/><path fill-rule="evenodd" clip-rule="evenodd" d="M40.4756 15.9734C38.3522 13.9253 35.7581 12.9272 33.22 12.9272C32.4138 12.9272 31.6142 13.0284 30.8365 13.228C28.8694 13.734 27.9086 14.7486 27.5253 15.2738C28.3502 15.4592 29.1531 15.8419 29.7658 16.817C30.2684 17.6205 30.3526 18.7149 30.0523 19.7241C29.9539 20.0529 29.8169 20.3125 29.647 20.6122C30.1155 20.5396 30.5946 20.4918 31.0912 20.4918C33.7788 20.4918 36.6682 21.5378 39.5329 23.5028C41.1377 24.6049 42.7557 25.8236 45.1656 25.8236C46.9656 25.8247 48.1111 25.0075 48.4136 24.6808C48.5571 24.5268 48.5467 24.3437 48.2629 24.2315C45.0088 22.9462 44.5243 19.8786 40.4756 15.9734Z" fill="#F03742"/><mask id="mask0_2012_2695" maskUnits="userSpaceOnUse" x="9" y="16" width="20" height="18" style="mask-type:luminance"><path fill-rule="evenodd" clip-rule="evenodd" d="M9.93005 16.517H28.7323V33.3433H9.93005V16.517Z" fill="white"/></mask><g mask="url(#mask0_2012_2695)"><path fill-rule="evenodd" clip-rule="evenodd" d="M20.6928 20.4667C19.9119 20.1725 19.2602 19.5087 19.2602 19.5087C19.2679 19.1551 20.0912 18.7135 21.0487 18.7135C21.5101 18.7135 22.0034 18.8158 22.4532 19.0792C22.1931 19.6803 20.9689 20.365 20.6928 20.4667ZM26.8985 21.2383C28.1612 20.6609 29.2243 18.818 28.4934 17.6422C27.8945 16.6776 26.8677 16.517 25.6551 16.517C25.368 16.517 25.0749 16.5483 24.6223 16.5808C22.726 16.7166 10.2965 18.3423 10.181 18.4215C10.0875 18.4847 9.96491 18.6392 10.0678 19.0187C10.1645 19.38 10.6243 20.0768 11.9051 20.4893C11.7523 20.5839 11.315 20.6592 10.9488 20.6268C10.3323 20.5723 9.98801 20.4277 9.98801 20.4277C9.98801 20.4277 9.66408 24.2878 10.5479 25.8238C11.1072 26.7994 11.7902 26.6796 13.1882 26.751C14.3821 26.8132 14.7726 26.9325 15.1631 27.3411C15.3918 27.5809 15.614 28.0385 15.4061 28.0489C14.7792 28.039 14.4091 28.0005 13.9323 28.0121C13.4863 28.0247 13.1002 28.0561 12.6113 28.215C12.1625 28.3613 11.4366 28.9058 11.1292 30.6079C11.0263 31.1727 10.8487 32.828 11.3249 33.18C11.5026 33.312 12.0553 33.3274 12.9451 33.3274C13.1172 33.3274 14.8243 33.3433 14.8435 33.3433C15.2401 33.3433 15.4446 33.2179 15.7004 32.9435C16.3724 32.2203 17.8243 30.9175 20.2116 30.0167C23.6048 28.7375 24.2444 28.0715 25.5005 26.5289C26.9915 24.6986 26.8985 21.2383 26.8985 21.2383Z" fill="#F03742"/></g><path fill-rule="evenodd" clip-rule="evenodd" d="M62.7581 37.931V40.2182H60.4059C62.0228 38.559 63.0265 36.0875 63.4131 34.3667L61.722 33.9757C61.3282 35.8038 60.0358 38.6157 58.4003 40.2628V41.4831H63.9487C64.2666 41.4831 64.5251 41.2252 64.5251 40.9068V37.931H62.7581Z" fill="#464644"/><path fill-rule="evenodd" clip-rule="evenodd" d="M101.807 9.60101V17.4675L95.2007 9.60101H91.7173V21.5806H94.637V13.4479L101.47 21.5806H103.539C104.193 21.5806 104.728 21.0455 104.728 20.3922V9.60101H101.807Z" fill="#464644"/><path fill-rule="evenodd" clip-rule="evenodd" d="M82.6546 11.9931C84.4265 11.9931 85.9383 12.9791 86.5224 14.3579C87.4287 13.7183 88.169 13.0594 88.6942 12.4237C87.5013 10.4505 85.2432 9.11353 82.6546 9.11353C78.828 9.11353 75.7147 12.0288 75.7147 15.6129C75.7147 16.5483 75.9309 17.4354 76.312 18.24C77.2342 18.1504 78.228 17.9628 79.2707 17.6807C78.8022 17.0939 78.5261 16.3817 78.5261 15.6129C78.5261 13.6171 80.3772 11.9931 82.6546 11.9931Z" fill="#464644"/><path fill-rule="evenodd" clip-rule="evenodd" d="M86.7802 15.5707C86.7802 15.585 86.7835 15.5993 86.7835 15.6125C86.7835 17.6088 84.9307 19.2334 82.6545 19.2334C81.7773 19.2334 80.9661 18.9903 80.2968 18.5806C79.1337 18.9348 78.0118 19.1828 76.9619 19.3208C78.218 21.0064 80.2996 22.1129 82.6545 22.1129C86.4805 22.1129 89.5938 19.1971 89.5938 15.6125C89.5938 14.8904 89.4623 14.1975 89.2292 13.548C88.5731 14.2514 87.7366 14.9344 86.7802 15.5707Z" fill="#464644"/><path fill-rule="evenodd" clip-rule="evenodd" d="M70.6732 9.60101V21.5806H72.4028C73.0573 21.5806 73.5918 21.0455 73.5918 20.3922V9.60101H70.6732Z" fill="#464644"/><path fill-rule="evenodd" clip-rule="evenodd" d="M60.7699 18.6611V9.6012H57.8507V21.5808H67.311C67.9649 21.5808 68.5 21.0463 68.5 20.3924V18.6611H60.7699Z" fill="#464644"/><path fill-rule="evenodd" clip-rule="evenodd" d="M161.17 9.58136L157.158 19.156L153.145 9.58136H149.98L155.014 21.5797H159.301L164.335 9.58136H161.17Z" fill="#464644"/><path fill-rule="evenodd" clip-rule="evenodd" d="M176.698 12.5262V9.58179H166.019V21.5801H175.507C176.162 21.5801 176.698 21.045 176.698 20.3895V18.656H168.957V16.8995H176.056V14.2201H168.957V12.5262H176.698Z" fill="#464644"/><path fill-rule="evenodd" clip-rule="evenodd" d="M182.33 18.6556V9.58136H179.406V21.5797H188.879C189.535 21.5797 190.07 21.0446 190.07 20.3896V18.6556H182.33Z" fill="#464644"/><path fill-rule="evenodd" clip-rule="evenodd" d="M115.017 9.6109V21.5801H116.75C117.405 21.5801 117.94 21.045 117.94 20.3894V9.6109H115.017Z" fill="#464644"/><path fill-rule="evenodd" clip-rule="evenodd" d="M110.493 12.5277H122.458V9.61133H110.493V12.5277Z" fill="#464644"/><path fill-rule="evenodd" clip-rule="evenodd" d="M127.647 12.5037H131.828C132.487 12.5037 133.024 13.0404 133.024 13.7009C133.024 14.3609 132.487 14.8982 131.828 14.8982H127.647V12.5037ZM133.456 17.4764C134.916 16.845 135.94 15.3909 135.94 13.7009C135.94 11.4324 134.095 9.58728 131.828 9.58728H124.723V21.5867H126.456C127.111 21.5867 127.647 21.0511 127.647 20.3966V17.8146H130.356L132.19 20.8443C132.437 21.2523 133.03 21.5867 133.506 21.5867H136.045L133.456 17.4764Z" fill="#464644"/><path fill-rule="evenodd" clip-rule="evenodd" d="M142.588 16.1747L144.337 12.0023L146.083 16.1747H142.588ZM148.35 21.5802H151.513L146.479 9.58136H142.193L137.16 21.5802H140.323L141.366 19.0906H147.306L148.35 21.5802Z" fill="#464644"/></svg>
